<?xml version="1.0" encoding="UTF-8" standalone="no"?>
<svg width="260px" height="74px" viewBox="0 0 260 74" version="1.1" xmlns="http://www.w3.org/2000/svg" xmlns:xlink="http://www.w3.org/1999/xlink" xmlns:sketch="http://www.bohemiancoding.com/sketch/ns">
    <title>logo</title>
    <description>Created with Sketch (http://www.bohemiancoding.com/sketch)</description>
    <defs></defs>
    <g id="Page-1" stroke="none" stroke-width="1" fill="none" fill-rule="evenodd" sketch:type="MSPage">
        <g id="Papa-Bear" sketch:type="MSArtboardGroup" transform="translate(-50.000000, -53.000000)" fill="#FFFFFF">
            <g id="logo" sketch:type="MSLayerGroup" transform="translate(50.000000, 53.000000)">
                <path d="M0,0 L0,74 L260,74 L260,0 L0,0 Z M4.98402556,5.04545455 L4.98402556,68.9545455 L255.015974,68.9545455 L255.015974,5.04545455 L4.98402556,5.04545455 Z M132.542648,5.04545455 L127.167203,5.04545455 L101.660627,68.9545455 L107.036072,68.9545455 L132.542648,5.04545455 Z" id="outline" fill-opacity="0.5" sketch:type="MSShapeGroup"></path>
                <g id="logotype" transform="translate(29.904153, 24.386364)" sketch:type="MSShapeGroup">
                    <path d="M7.75514377,18.7623636 C10.1674121,18.7623636 12.0613419,17.7532727 13.4169968,16.2194545 L13.4169968,11.0529091 L7.07731629,11.0529091 L7.07731629,13.5554545 L10.5860703,13.5554545 L10.5860703,15.17 C10.0477955,15.6745455 8.9313738,16.1992727 7.75514377,16.1992727 C5.3428754,16.1992727 3.5884984,14.3223636 3.5884984,11.7794545 C3.5884984,9.23654545 5.3428754,7.35963636 7.75514377,7.35963636 C9.17060703,7.35963636 10.3069649,8.16690909 10.9050479,9.11545455 L13.257508,7.82381818 C12.2607029,6.22945455 10.526262,4.81672727 7.75514377,4.81672727 C3.86760383,4.81672727 0.677827476,7.52109091 0.677827476,11.7794545 C0.677827476,16.0176364 3.86760383,18.7623636 7.75514377,18.7623636 Z M26.1229393,18.7421818 C30.1500319,18.7421818 33.080639,15.836 33.080639,11.7794545 C33.080639,7.72290909 30.1500319,4.81672727 26.1229393,4.81672727 C22.1157827,4.81672727 19.1851757,7.72290909 19.1851757,11.7794545 C19.1851757,15.836 22.1157827,18.7421818 26.1229393,18.7421818 Z M26.1229393,16.1992727 C23.6707987,16.1992727 22.0958466,14.282 22.0958466,11.7794545 C22.0958466,9.25672727 23.6707987,7.35963636 26.1229393,7.35963636 C28.5750799,7.35963636 30.1699681,9.25672727 30.1699681,11.7794545 C30.1699681,14.282 28.5750799,16.1992727 26.1229393,16.1992727 Z M45.5274121,18.7421818 C49.5545048,18.7421818 52.4851118,15.836 52.4851118,11.7794545 C52.4851118,7.72290909 49.5545048,4.81672727 45.5274121,4.81672727 C41.5202556,4.81672727 38.5896486,7.72290909 38.5896486,11.7794545 C38.5896486,15.836 41.5202556,18.7421818 45.5274121,18.7421818 Z M45.5274121,16.1992727 C43.0752716,16.1992727 41.5003195,14.282 41.5003195,11.7794545 C41.5003195,9.25672727 43.0752716,7.35963636 45.5274121,7.35963636 C47.9795527,7.35963636 49.5744409,9.25672727 49.5744409,11.7794545 C49.5744409,14.282 47.9795527,16.1992727 45.5274121,16.1992727 Z M63.8752716,18.5 C68.0419169,18.5 70.9326518,15.836 70.9326518,11.7794545 C70.9326518,7.72290909 68.0419169,5.03872727 63.8752716,5.03872727 L58.6320767,5.03872727 L58.6320767,18.5 L63.8752716,18.5 Z M63.8752716,15.9772727 L61.4630032,15.9772727 L61.4630032,7.56145455 L63.8752716,7.56145455 C66.6065176,7.56145455 68.0419169,9.398 68.0419169,11.7794545 C68.0419169,14.06 66.5068371,15.9772727 63.8752716,15.9772727 Z" id="GOOD-copy"></path>
                    <path d="M110.758339,18.7421818 C113.688946,18.7421818 115.363578,17.1074545 116.320511,15.4323636 L113.888307,14.2416364 C113.330096,15.3516364 112.13393,16.1992727 110.758339,16.1992727 C108.34607,16.1992727 106.591693,14.3223636 106.591693,11.7794545 C106.591693,9.23654545 108.34607,7.35963636 110.758339,7.35963636 C112.13393,7.35963636 113.330096,8.22745455 113.888307,9.31727273 L116.320511,8.10636364 C115.383514,6.43127273 113.688946,4.81672727 110.758339,4.81672727 C106.771118,4.81672727 103.681022,7.64218182 103.681022,11.7794545 C103.681022,15.9167273 106.771118,18.7421818 110.758339,18.7421818 Z M124.999361,18.5 L124.999361,5.03872727 L122.168435,5.03872727 L122.168435,18.5 L124.999361,18.5 Z M137.705304,18.5 L137.705304,7.56145455 L141.572907,7.56145455 L141.572907,5.03872727 L130.966901,5.03872727 L130.966901,7.56145455 L134.854441,7.56145455 L134.854441,18.5 L137.705304,18.5 Z M150.371374,18.5 L150.371374,5.03872727 L147.540447,5.03872727 L147.540447,18.5 L150.371374,18.5 Z M166.805367,18.5 L166.805367,15.9772727 L160.385942,15.9772727 L166.665815,7.33945455 L166.665815,5.03872727 L156.677827,5.03872727 L156.677827,7.56145455 L162.9577,7.56145455 L156.677827,16.1790909 L156.677827,18.5 L166.805367,18.5 Z M182.521661,18.5 L182.521661,15.9772727 L175.942748,15.9772727 L175.942748,12.9298182 L182.382109,12.9298182 L182.382109,10.4070909 L175.942748,10.4070909 L175.942748,7.56145455 L182.521661,7.56145455 L182.521661,5.03872727 L173.111821,5.03872727 L173.111821,18.5 L182.521661,18.5 Z M200.789776,18.5 L200.789776,5.03872727 L197.95885,5.03872727 L197.95885,13.4949091 L191.798594,5.03872727 L188.887923,5.03872727 L188.887923,18.5 L191.71885,18.5 L191.71885,9.72090909 L198.05853,18.5 L200.789776,18.5 Z" id="CITIZEN-copy"></path>
                </g>
            </g>
        </g>
    </g>
</svg>